<svg width="156" height="41" viewBox="0 0 156 41" fill="none" xmlns="http://www.w3.org/2000/svg">
<path d="M56.88 16.5969C56.88 15.5785 56.4069 14.8511 55.0615 14.8511H52.2787V18.434H55.0428C56.3888 18.434 56.88 17.6519 56.88 16.5969ZM59.753 16.5788C59.753 18.8158 58.6625 20.5796 55.9163 20.5796H52.2787V24.7986H49.4965V12.7049H55.9163C58.6625 12.7049 59.753 14.4693 59.753 16.5788Z" fill="white"/>
<path d="M67.3014 15.5607V18.1794H66.4098C64.61 18.1794 63.9914 19.1611 63.9914 21.2159V24.7988H61.2999V15.7062H63.9186V17.6522C64.3551 16.3608 65.1739 15.5607 66.7014 15.5607H67.3014Z" fill="white"/>
<path d="M73.0306 22.9801C74.6856 22.9801 75.3763 22.2707 75.3763 20.252C75.3763 18.2339 74.6856 17.5245 73.0306 17.5245C71.3936 17.5245 70.7029 18.2339 70.7029 20.252C70.7029 22.2707 71.3936 22.9801 73.0306 22.9801ZM67.9934 20.2346C67.9934 17.7247 69.4116 15.415 73.0306 15.415C76.6676 15.415 78.0678 17.7427 78.0678 20.2346C78.0678 22.7619 76.6676 25.0896 73.0306 25.0896C69.4116 25.0896 67.9934 22.7799 67.9934 20.2346Z" fill="white"/>
<path d="M86.3254 15.7062H89.0168V24.7988H86.3254V15.7062ZM80.3967 17.7423H78.7783V16.4516L80.3967 15.6875V14.9241C80.3967 13.1236 81.2515 12.0691 83.5065 12.0691H88.9988V14.0145H82.7063V15.7062H85.1615V17.7423H83.0881V24.7988H80.3967V17.7423Z" fill="white"/>
<path d="M91.8912 21.5255V17.7429H90.2362V16.4516L92.1094 15.6881L93.2186 13.542H94.5827V15.7062H97.2013V17.7429H94.5827V22.6527H96.9471V24.7988H95.2373C92.6547 24.7988 91.8912 23.6897 91.8912 21.5255Z" fill="white"/>
<path d="M104.876 22.8347C107.531 22.8347 108.368 21.3979 108.368 18.7611C108.368 16.0878 107.531 14.651 104.876 14.651C102.221 14.651 101.385 16.0878 101.385 18.7611C101.385 21.3979 102.221 22.8347 104.876 22.8347ZM98.4933 18.7611C98.4933 15.4698 100.239 12.396 104.876 12.396C109.514 12.396 111.242 15.4878 111.242 18.7611C111.242 22.0892 109.514 25.1077 104.876 25.1077C100.239 25.1077 98.4933 22.1072 98.4933 18.7611Z" fill="white"/>
<path d="M120.208 20.2521C120.208 18.3608 119.608 17.5246 117.898 17.5246C116.189 17.5246 115.48 18.3975 115.48 20.2521C115.48 22.1073 116.189 22.9802 117.898 22.9802C119.608 22.9802 120.208 22.1253 120.208 20.2521ZM122.918 20.2521C122.918 22.8347 121.699 25.0897 118.717 25.0897C117.153 25.0897 116.116 24.4897 115.48 23.4714V28.4358H112.788V15.7061H115.48V17.0154C116.116 16.0151 117.153 15.4145 118.717 15.4145C121.699 15.4145 122.918 17.6334 122.918 20.2521Z" fill="white"/>
<path d="M125.264 21.5255V17.7429H123.609V16.4516L125.483 15.6881L126.592 13.542H127.956V15.7062H130.574V17.7429H127.956V22.6527H130.32V24.7988H128.61C126.028 24.7988 125.264 23.6897 125.264 21.5255Z" fill="white"/>
<path d="M132.157 15.7062H134.849V24.7988H132.157V15.7062ZM132.03 12.7051H134.958V14.5056H132.03V12.7051Z" fill="white"/>
<path d="M141.378 15.4148C144.524 15.4148 146.07 17.1606 146.142 19.3975H143.524C143.433 18.2703 142.815 17.5243 141.433 17.5243C139.978 17.5243 139.105 18.2156 139.105 20.2524C139.105 22.3072 139.941 22.9799 141.396 22.9799C142.833 22.9799 143.469 22.1436 143.578 21.0525H146.197C146.142 23.1801 144.633 25.0894 141.433 25.0894C137.886 25.0894 136.395 22.7983 136.395 20.2524C136.395 17.7064 137.85 15.4148 141.378 15.4148Z" fill="white"/>
<path d="M149.69 21.8343C149.762 22.7072 150.417 23.3985 151.781 23.3985C153 23.3985 153.417 22.9801 153.417 22.3435C153.417 21.7976 153.163 21.3978 152.145 21.2704L150.108 21.0161C148.398 20.7979 147.471 19.8883 147.471 18.3607C147.471 16.3426 149.18 15.3964 151.599 15.3964C154.054 15.3964 155.709 16.3607 155.873 18.3607H153.381C153.29 17.6153 152.727 17.0881 151.599 17.0881C150.435 17.0881 149.962 17.5245 149.962 18.1064C149.962 18.5609 150.199 18.9246 151.108 19.034L153.018 19.2523C155.182 19.5246 156 20.4522 156 22.0705C156 23.853 154.872 25.0896 151.744 25.0896C148.508 25.0896 147.289 23.562 147.234 21.8343H149.69Z" fill="white"/>
<path d="M19.9885 17.5105C18.3844 17.5061 17.1391 18.7353 17.1348 20.3238C17.1323 21.8805 18.3732 23.1408 19.9114 23.1457C21.5024 23.1501 22.7719 21.9029 22.7787 20.3325C22.7856 18.7962 21.5179 17.513 19.9885 17.5105Z" fill="#BBD768"/>
<path d="M19.9782 26.1507C19.2552 26.1438 18.6838 26.6953 18.6745 27.4115C18.6633 28.1483 19.2148 28.7103 19.9509 28.7153C20.654 28.7221 21.2298 28.1595 21.2391 27.4588C21.2478 26.7494 20.6808 26.1575 19.9782 26.1507Z" fill="#BBD768"/>
<path d="M19.9476 14.5031C20.6707 14.5075 21.2421 13.9337 21.2377 13.2062C21.2334 12.4987 20.6775 11.9429 19.9682 11.9386C19.2426 11.9342 18.6843 12.4857 18.6756 13.2087C18.6688 13.9249 19.2358 14.5007 19.9476 14.5031Z" fill="#BBD768"/>
<path d="M19.9579 7.87158C20.4279 7.87158 20.8009 7.50104 20.8053 7.02853C20.8071 6.55229 20.4235 6.15874 19.9554 6.15874C19.4947 6.16123 19.1129 6.54545 19.1086 7.0105C19.1061 7.4942 19.4767 7.87158 19.9579 7.87158Z" fill="#BBD768"/>
<path d="M19.9692 1.46167C20.272 1.45918 20.4933 1.2335 20.4914 0.926369C20.4889 0.616753 20.272 0.402259 19.9599 0.402259C19.6484 0.404124 19.4246 0.618618 19.4227 0.923882C19.4202 1.23599 19.6509 1.46167 19.9692 1.46167Z" fill="#BBD768"/>
<path d="M19.9511 32.782C19.4785 32.7845 19.1105 33.155 19.1105 33.6269C19.108 34.1106 19.4904 34.4992 19.9579 34.4948C20.4236 34.4899 20.7985 34.1106 20.8028 33.6406C20.8072 33.1594 20.4323 32.7795 19.9511 32.782Z" fill="#BBD768"/>
<path d="M19.9737 39.1921C19.6616 39.1853 19.4316 39.4023 19.4266 39.7075C19.4222 40.0234 19.6324 40.2453 19.942 40.2497C20.2653 40.254 20.4823 40.0507 20.4866 39.7386C20.4935 39.4228 20.2808 39.1965 19.9737 39.1921Z" fill="#BBD768"/>
<path d="M14.9871 24.1239C14.2665 24.1215 13.7039 24.6822 13.7039 25.4003C13.7014 26.1277 14.2504 26.6817 14.9759 26.6836C15.6965 26.6885 16.2616 26.1277 16.2635 25.4115C16.2635 24.6909 15.7033 24.1283 14.9871 24.1239Z" fill="#BBD768"/>
<path d="M14.8718 16.7331C15.6421 16.7356 16.2502 16.1208 16.2502 15.348C16.2477 14.5801 15.6533 13.9876 14.8811 13.9858C14.1083 13.9833 13.5046 14.5752 13.5028 15.3393C13.4978 16.1164 14.1034 16.7307 14.8718 16.7331Z" fill="#BBD768"/>
<path d="M12.8407 19.117C12.1269 19.1195 11.5618 19.6909 11.5661 20.4071C11.5711 21.1277 12.1313 21.6835 12.8543 21.6816C13.5724 21.6791 14.1351 21.1097 14.1264 20.3934C14.1195 19.6729 13.5569 19.1146 12.8407 19.117Z" fill="#BBD768"/>
<path d="M12.2306 10.3276C12.728 10.3301 13.0892 9.96827 13.0867 9.47587C13.0848 8.99217 12.728 8.64214 12.2374 8.64214C11.7537 8.64214 11.3944 8.99901 11.3925 9.48022C11.3875 9.96143 11.7519 10.3251 12.2306 10.3276Z" fill="#BBD768"/>
<path d="M12.0408 30.159C11.5664 30.1497 11.1822 30.532 11.1797 31.0132C11.1797 31.4988 11.5552 31.8737 12.0364 31.8693C12.5064 31.865 12.872 31.4945 12.8745 31.0201C12.877 30.5451 12.5108 30.1677 12.0408 30.159Z" fill="#BBD768"/>
<path d="M10.4839 2.86018C10.1768 2.86453 9.95982 3.09084 9.96418 3.40232C9.96666 3.71194 10.1948 3.9314 10.5045 3.92643C10.8072 3.92208 11.0373 3.68458 11.0329 3.38243C11.0286 3.084 10.7892 2.85769 10.4839 2.86018Z" fill="#BBD768"/>
<path d="M10.0322 36.4581C9.71819 36.4538 9.49437 36.6683 9.49002 36.9735C9.48318 37.2894 9.71135 37.5269 10.021 37.5269C10.3213 37.5269 10.5476 37.2987 10.5494 36.9959C10.5519 36.6838 10.3374 36.4606 10.0322 36.4581Z" fill="#BBD768"/>
<path d="M7.36145 15.2398C6.87589 15.2311 6.4985 15.5948 6.49167 16.0804C6.48483 16.5548 6.8734 16.9527 7.34094 16.9502C7.80225 16.9502 8.18399 16.566 8.18834 16.1009C8.19269 15.6259 7.82899 15.2467 7.36145 15.2398Z" fill="#BBD768"/>
<path d="M7.25987 23.471C6.77182 23.471 6.41682 23.821 6.41682 24.3072C6.41495 24.7996 6.76063 25.1521 7.24619 25.154C7.74792 25.159 8.10292 24.8083 8.10043 24.3091C8.10043 23.8235 7.74792 23.471 7.25987 23.471Z" fill="#BBD768"/>
<path d="M3.28085 9.85321C2.98056 9.86005 2.76109 10.0926 2.76544 10.4003C2.76793 10.7006 3.01227 10.9468 3.29639 10.9375C3.59731 10.9313 3.82548 10.6963 3.82548 10.3953C3.82548 10.0814 3.59047 9.84637 3.28085 9.85321Z" fill="#BBD768"/>
<path d="M3.03924 29.2598C2.72713 29.2504 2.49896 29.4631 2.48777 29.7702C2.47658 30.0798 2.69791 30.313 3.00318 30.3192C3.31963 30.326 3.5478 30.114 3.55216 29.8063C3.559 29.4904 3.35134 29.2666 3.03924 29.2598Z" fill="#BBD768"/>
<path d="M0.687001 19.5281C0.447638 19.4672 0.19895 19.5847 0.0770933 19.8172C0.0522245 19.8626 0.0248688 19.9055 0 19.9484V20.1269C0.0205168 20.1741 0.0410335 20.222 0.0634154 20.2667C0.178434 20.5154 0.40474 20.6261 0.684514 20.572C0.917659 20.5266 1.09361 20.3121 1.10044 20.0659C1.10728 19.8197 0.931337 19.5916 0.687001 19.5281Z" fill="#BBD768"/>
<path d="M24.9263 24.1239C24.2101 24.1283 23.6499 24.6909 23.6499 25.4115C23.6518 26.1277 24.2169 26.6885 24.9375 26.6836C25.663 26.6817 26.212 26.1277 26.2095 25.4003C26.2095 24.6822 25.6469 24.1215 24.9263 24.1239Z" fill="#BBD768"/>
<path d="M25.0417 16.7331C25.8101 16.7307 26.4157 16.1164 26.4107 15.3393C26.4088 14.5752 25.8052 13.9833 25.0324 13.9858C24.2602 13.9876 23.6658 14.5801 23.6633 15.348C23.6633 16.1208 24.2714 16.7356 25.0417 16.7331Z" fill="#BBD768"/>
<path d="M27.0729 19.117C26.3566 19.1146 25.794 19.6729 25.7871 20.3934C25.7784 21.1097 26.3411 21.6791 27.0592 21.6816C27.7822 21.6835 28.3424 21.1277 28.3474 20.4071C28.3517 19.6909 27.7866 19.1195 27.0729 19.117Z" fill="#BBD768"/>
<path d="M27.6829 10.3276C28.1616 10.3251 28.526 9.96143 28.521 9.48022C28.5191 8.99901 28.1598 8.64214 27.6761 8.64214C27.1861 8.64214 26.8287 8.99217 26.8268 9.47587C26.8243 9.96827 27.1861 10.3301 27.6829 10.3276Z" fill="#BBD768"/>
<path d="M27.8728 30.159C27.4028 30.1677 27.0366 30.5451 27.0391 31.0201C27.0416 31.4945 27.4071 31.865 27.8772 31.8693C28.3584 31.8737 28.7339 31.4988 28.7339 31.0132C28.7314 30.532 28.3472 30.1497 27.8728 30.159Z" fill="#BBD768"/>
<path d="M29.9492 3.40258C29.9536 3.0911 29.7366 2.8648 29.4295 2.86044C29.1248 2.85796 28.8848 3.08426 28.8805 3.38207C28.8761 3.68484 29.1062 3.92234 29.409 3.92669C29.7186 3.93105 29.9467 3.7122 29.9492 3.40258Z" fill="#BBD768"/>
<path d="M29.8814 36.4581C29.5762 36.4606 29.3617 36.6838 29.3642 36.9959C29.366 37.2987 29.5923 37.5269 29.8926 37.5269C30.2022 37.5269 30.4304 37.2894 30.4236 36.9735C30.4192 36.6683 30.1954 36.4538 29.8814 36.4581Z" fill="#BBD768"/>
<path d="M32.5724 16.9502C33.04 16.9527 33.4285 16.5548 33.4217 16.0804C33.4155 15.5942 33.0381 15.2305 32.5519 15.2398C32.0844 15.2467 31.7207 15.6259 31.725 16.1009C31.7294 16.566 32.1117 16.9502 32.5724 16.9502Z" fill="#BBD768"/>
<path d="M32.6537 23.471C32.1656 23.471 31.8131 23.8235 31.8131 24.3091C31.8106 24.8083 32.1656 25.159 32.6674 25.154C33.1529 25.1521 33.4986 24.7996 33.4967 24.3072C33.4967 23.821 33.1417 23.471 32.6537 23.471Z" fill="#BBD768"/>
<path d="M37.1477 10.4C37.152 10.0928 36.9332 9.8597 36.6323 9.85286C36.3233 9.84665 36.0883 10.0817 36.0883 10.3956C36.0883 10.6959 36.3164 10.9309 36.6167 10.9378C36.9015 10.9465 37.1452 10.7003 37.1477 10.4Z" fill="#BBD768"/>
<path d="M36.8744 29.2598C36.5622 29.2666 36.3546 29.4904 36.3614 29.8063C36.3658 30.114 36.594 30.326 36.9104 30.3192C37.2157 30.313 37.437 30.0798 37.4258 29.7702C37.4146 29.4631 37.1858 29.2504 36.8744 29.2598Z" fill="#BBD768"/>
<path d="M39.8364 19.8175C39.7146 19.585 39.4659 19.4675 39.2265 19.5284C38.9822 19.5918 38.8062 19.82 38.8131 20.0662C38.8199 20.3124 38.9958 20.5269 39.2284 20.5723C39.5088 20.6263 39.7344 20.5157 39.8501 20.267C39.8725 20.2222 39.893 20.1744 39.9135 20.1271V19.9487C39.8886 19.9058 39.8613 19.8629 39.8364 19.8175Z" fill="#BBD768"/>
</svg>
