<svg width="836" height="834" viewBox="0 0 836 834" fill="none" xmlns="http://www.w3.org/2000/svg">
<mask id="path-1-inside-1_268_617" fill="white">
<path fill-rule="evenodd" clip-rule="evenodd" d="M429.198 10.9695C429.237 17.3976 424.601 22.1212 418.259 22.1732C411.592 22.1732 406.761 17.4497 406.813 10.9174C406.852 4.52832 411.54 0.0390226 418.064 0C424.601 0 429.146 4.48928 429.198 10.9695ZM418.025 156.334C427.869 156.334 435.683 148.579 435.774 138.689C435.813 128.722 427.778 120.485 417.973 120.485C408.323 120.537 400.328 128.579 400.236 138.312C400.184 148.436 407.945 156.334 418.025 156.334ZM444.83 267.986C444.921 283.211 432.954 295.221 417.809 295.13C402.899 295.078 391.023 283.029 391.166 268.038C391.348 252.905 403.042 241.363 418.239 241.454C433.097 241.545 444.739 253.178 444.83 267.986ZM418.664 358.073C385.067 357.982 358.984 383.708 358.893 416.955C358.841 449.538 384.833 475.914 417.049 476.018C450.373 476.109 476.964 450.006 477.107 417.137C477.251 384.983 450.699 358.125 418.664 358.073ZM418.45 538.909C403.305 538.765 391.338 550.307 391.143 565.298C390.908 580.718 402.459 592.481 417.877 592.585C432.605 592.728 444.663 580.952 444.859 566.287C445.041 551.44 433.165 539.052 418.45 538.909ZM417.881 677.703C407.984 677.755 400.275 685.511 400.275 695.387C400.223 705.511 408.231 713.644 418.024 713.553C427.777 713.449 435.63 705.511 435.721 695.674C435.812 685.602 427.96 677.651 417.881 677.703ZM406.895 822.652C407 816.263 411.818 811.721 418.355 811.864C424.788 811.956 429.241 816.692 429.098 823.302C429.007 829.835 424.462 834.09 417.691 833.999C411.206 833.907 406.804 829.262 406.895 822.652ZM313.909 496.491C298.816 496.439 287.031 508.176 287.031 523.206C286.979 538.43 298.478 550.024 313.675 550.063C328.767 550.167 340.604 538.43 340.643 523.44C340.643 508.358 328.911 496.582 313.909 496.491ZM340.363 312.813C340.363 328.987 327.627 341.856 311.493 341.804C295.398 341.752 282.714 328.896 282.818 312.63C282.857 296.638 295.502 284.25 311.688 284.302C327.862 284.341 340.311 296.742 340.363 312.813ZM268.95 391.696C254.001 391.748 242.163 403.707 242.255 418.697C242.359 433.778 254.092 445.412 269.236 445.373C284.277 445.32 296.062 433.401 295.88 418.411C295.736 403.329 283.951 391.644 268.95 391.696ZM274.105 189.912C274.157 200.218 266.591 207.791 256.173 207.739C246.146 207.687 238.515 200.074 238.619 190.003C238.658 179.931 246.185 172.462 256.316 172.462C266.591 172.462 274.066 179.788 274.105 189.912ZM252.197 622.801C242.262 622.606 234.214 630.609 234.162 640.68C234.162 650.843 242.027 658.689 252.106 658.598C261.951 658.507 269.608 650.752 269.66 640.823C269.712 630.882 262.042 622.983 252.197 622.801ZM208.703 62.7928C208.611 56.2736 213.156 51.5371 219.589 51.446C225.983 51.3939 230.996 56.1305 231.088 62.3764C231.179 68.7005 226.361 73.6712 220.019 73.7623C213.534 73.8664 208.755 69.273 208.703 62.7928ZM210.126 754.644C203.55 754.553 198.862 759.043 198.771 765.432C198.628 772.042 203.407 777.013 209.892 777.013C216.182 777.013 220.922 772.237 220.961 765.9C221.013 759.368 216.52 754.697 210.126 754.644ZM135.97 328.139C136.113 317.976 144.018 310.364 154.188 310.546C163.98 310.689 171.598 318.627 171.507 328.568C171.416 338.302 163.42 346.343 153.758 346.343C143.965 346.395 135.827 338.067 135.97 328.139ZM152.059 482.824C141.836 482.824 134.401 490.15 134.401 500.326C134.362 510.632 141.602 518.01 151.772 518.049C162.281 518.153 169.717 510.814 169.665 500.365C169.665 490.202 162.281 482.824 152.059 482.824ZM57.923 209.259C57.8319 202.818 62.4287 197.951 68.7184 197.808C75.2034 197.665 80.1257 202.583 80.1257 209.155C80.1257 215.453 75.3466 220.371 69.0439 220.502C63.0928 220.697 57.9751 215.544 57.923 209.259ZM63.6564 603.98C57.1193 603.785 52.3402 608.235 52.1058 614.663C51.8714 621.143 56.5073 626.023 62.9012 626.153C69.5294 626.296 74.3085 621.859 74.3997 615.418C74.5429 608.807 70.1935 604.123 63.6564 603.98ZM1.61474 406.353C4.16707 401.486 9.37592 399.027 14.3894 400.302C19.5071 401.629 23.1924 406.405 23.0491 411.558C22.9059 416.711 19.2206 421.2 14.3373 422.15C8.47739 423.282 3.73734 420.966 1.32825 415.761C0.895869 414.897 0.496716 413.977 0.100145 413.064L0 412.833V409.098C0.200161 408.753 0.408013 408.408 0.617645 408.06L0.617693 408.06C0.953578 407.503 1.29403 406.938 1.61474 406.353ZM522.089 496.491C507.087 496.582 495.354 508.358 495.354 523.44C495.393 538.43 507.23 550.167 522.323 550.063C537.52 550.024 549.018 538.43 548.966 523.206C548.966 508.176 537.181 496.439 522.089 496.491ZM553.18 312.63C553.284 328.896 540.601 341.752 524.505 341.804C508.371 341.856 495.635 328.987 495.635 312.813C495.688 296.742 508.137 284.341 524.31 284.302C540.497 284.25 553.141 296.638 553.18 312.63ZM567.048 391.696C552.046 391.644 540.261 403.329 540.118 418.411C539.936 433.401 551.721 445.32 566.761 445.373C581.906 445.412 593.639 433.778 593.743 418.697C593.834 403.707 581.997 391.748 567.048 391.696ZM597.38 190.003C597.484 200.074 589.854 207.687 579.827 207.739C569.422 207.791 561.843 200.218 561.895 189.912C561.934 179.788 569.422 172.462 579.683 172.462C589.815 172.462 597.341 179.931 597.38 190.003ZM583.804 622.801C573.959 622.983 566.289 630.882 566.341 640.823C566.393 650.752 574.05 658.507 583.895 658.598C593.974 658.689 601.84 650.843 601.84 640.68C601.788 630.609 593.74 622.606 583.804 622.801ZM616.408 51.4489C622.841 51.54 627.385 56.2765 627.294 62.7958C627.242 69.276 622.463 73.8564 615.978 73.7653C609.636 73.6742 604.818 68.7034 604.909 62.3664C605 56.1334 610.027 51.3969 616.408 51.4489ZM625.875 754.644C619.481 754.697 614.989 759.368 615.041 765.9C615.08 772.237 619.82 777.013 626.11 777.013C632.595 777.013 637.374 772.042 637.231 765.432C637.139 759.043 632.451 754.553 625.875 754.644ZM700.027 328.141C700.17 338.069 692.031 346.397 682.239 346.345C672.589 346.345 664.581 338.304 664.49 328.57C664.399 318.629 672.017 310.691 681.809 310.548C691.992 310.353 699.897 317.965 700.027 328.141ZM683.941 482.824C673.719 482.824 666.335 490.202 666.335 500.365C666.283 510.814 673.719 518.153 684.228 518.049C694.398 518.01 701.638 510.632 701.599 500.326C701.599 490.15 694.163 482.824 683.941 482.824ZM767.273 197.801C773.576 197.944 778.16 202.823 778.069 209.252C778.017 215.537 772.912 220.689 766.948 220.507C760.658 220.364 755.879 215.445 755.879 209.16C755.879 202.589 760.801 197.67 767.273 197.801ZM772.343 603.98C765.806 604.123 761.456 608.807 761.6 615.418C761.691 621.859 766.47 626.296 773.098 626.153C779.492 626.023 784.128 621.143 783.893 614.663C783.659 608.235 778.867 603.785 772.343 603.98ZM821.611 400.305C826.624 399.03 831.833 401.489 834.385 406.356C834.706 406.941 835.047 407.506 835.382 408.064C835.592 408.412 835.8 408.757 836 409.102V412.836L835.901 413.065C835.504 413.979 835.104 414.899 834.672 415.764C832.25 420.969 827.523 423.285 821.65 422.153C816.779 421.203 813.094 416.714 812.951 411.561C812.808 406.408 816.493 401.632 821.611 400.305Z"/>
</mask>
<path fill-rule="evenodd" clip-rule="evenodd" d="M429.198 10.9695C429.237 17.3976 424.601 22.1212 418.259 22.1732C411.592 22.1732 406.761 17.4497 406.813 10.9174C406.852 4.52832 411.54 0.0390226 418.064 0C424.601 0 429.146 4.48928 429.198 10.9695ZM418.025 156.334C427.869 156.334 435.683 148.579 435.774 138.689C435.813 128.722 427.778 120.485 417.973 120.485C408.323 120.537 400.328 128.579 400.236 138.312C400.184 148.436 407.945 156.334 418.025 156.334ZM444.83 267.986C444.921 283.211 432.954 295.221 417.809 295.13C402.899 295.078 391.023 283.029 391.166 268.038C391.348 252.905 403.042 241.363 418.239 241.454C433.097 241.545 444.739 253.178 444.83 267.986ZM418.664 358.073C385.067 357.982 358.984 383.708 358.893 416.955C358.841 449.538 384.833 475.914 417.049 476.018C450.373 476.109 476.964 450.006 477.107 417.137C477.251 384.983 450.699 358.125 418.664 358.073ZM418.45 538.909C403.305 538.765 391.338 550.307 391.143 565.298C390.908 580.718 402.459 592.481 417.877 592.585C432.605 592.728 444.663 580.952 444.859 566.287C445.041 551.44 433.165 539.052 418.45 538.909ZM417.881 677.703C407.984 677.755 400.275 685.511 400.275 695.387C400.223 705.511 408.231 713.644 418.024 713.553C427.777 713.449 435.63 705.511 435.721 695.674C435.812 685.602 427.96 677.651 417.881 677.703ZM406.895 822.652C407 816.263 411.818 811.721 418.355 811.864C424.788 811.956 429.241 816.692 429.098 823.302C429.007 829.835 424.462 834.09 417.691 833.999C411.206 833.907 406.804 829.262 406.895 822.652ZM313.909 496.491C298.816 496.439 287.031 508.176 287.031 523.206C286.979 538.43 298.478 550.024 313.675 550.063C328.767 550.167 340.604 538.43 340.643 523.44C340.643 508.358 328.911 496.582 313.909 496.491ZM340.363 312.813C340.363 328.987 327.627 341.856 311.493 341.804C295.398 341.752 282.714 328.896 282.818 312.63C282.857 296.638 295.502 284.25 311.688 284.302C327.862 284.341 340.311 296.742 340.363 312.813ZM268.95 391.696C254.001 391.748 242.163 403.707 242.255 418.697C242.359 433.778 254.092 445.412 269.236 445.373C284.277 445.32 296.062 433.401 295.88 418.411C295.736 403.329 283.951 391.644 268.95 391.696ZM274.105 189.912C274.157 200.218 266.591 207.791 256.173 207.739C246.146 207.687 238.515 200.074 238.619 190.003C238.658 179.931 246.185 172.462 256.316 172.462C266.591 172.462 274.066 179.788 274.105 189.912ZM252.197 622.801C242.262 622.606 234.214 630.609 234.162 640.68C234.162 650.843 242.027 658.689 252.106 658.598C261.951 658.507 269.608 650.752 269.66 640.823C269.712 630.882 262.042 622.983 252.197 622.801ZM208.703 62.7928C208.611 56.2736 213.156 51.5371 219.589 51.446C225.983 51.3939 230.996 56.1305 231.088 62.3764C231.179 68.7005 226.361 73.6712 220.019 73.7623C213.534 73.8664 208.755 69.273 208.703 62.7928ZM210.126 754.644C203.55 754.553 198.862 759.043 198.771 765.432C198.628 772.042 203.407 777.013 209.892 777.013C216.182 777.013 220.922 772.237 220.961 765.9C221.013 759.368 216.52 754.697 210.126 754.644ZM135.97 328.139C136.113 317.976 144.018 310.364 154.188 310.546C163.98 310.689 171.598 318.627 171.507 328.568C171.416 338.302 163.42 346.343 153.758 346.343C143.965 346.395 135.827 338.067 135.97 328.139ZM152.059 482.824C141.836 482.824 134.401 490.15 134.401 500.326C134.362 510.632 141.602 518.01 151.772 518.049C162.281 518.153 169.717 510.814 169.665 500.365C169.665 490.202 162.281 482.824 152.059 482.824ZM57.923 209.259C57.8319 202.818 62.4287 197.951 68.7184 197.808C75.2034 197.665 80.1257 202.583 80.1257 209.155C80.1257 215.453 75.3466 220.371 69.0439 220.502C63.0928 220.697 57.9751 215.544 57.923 209.259ZM63.6564 603.98C57.1193 603.785 52.3402 608.235 52.1058 614.663C51.8714 621.143 56.5073 626.023 62.9012 626.153C69.5294 626.296 74.3085 621.859 74.3997 615.418C74.5429 608.807 70.1935 604.123 63.6564 603.98ZM1.61474 406.353C4.16707 401.486 9.37592 399.027 14.3894 400.302C19.5071 401.629 23.1924 406.405 23.0491 411.558C22.9059 416.711 19.2206 421.2 14.3373 422.15C8.47739 423.282 3.73734 420.966 1.32825 415.761C0.895869 414.897 0.496716 413.977 0.100145 413.064L0 412.833V409.098C0.200161 408.753 0.408013 408.408 0.617645 408.06L0.617693 408.06C0.953578 407.503 1.29403 406.938 1.61474 406.353ZM522.089 496.491C507.087 496.582 495.354 508.358 495.354 523.44C495.393 538.43 507.23 550.167 522.323 550.063C537.52 550.024 549.018 538.43 548.966 523.206C548.966 508.176 537.181 496.439 522.089 496.491ZM553.18 312.63C553.284 328.896 540.601 341.752 524.505 341.804C508.371 341.856 495.635 328.987 495.635 312.813C495.688 296.742 508.137 284.341 524.31 284.302C540.497 284.25 553.141 296.638 553.18 312.63ZM567.048 391.696C552.046 391.644 540.261 403.329 540.118 418.411C539.936 433.401 551.721 445.32 566.761 445.373C581.906 445.412 593.639 433.778 593.743 418.697C593.834 403.707 581.997 391.748 567.048 391.696ZM597.38 190.003C597.484 200.074 589.854 207.687 579.827 207.739C569.422 207.791 561.843 200.218 561.895 189.912C561.934 179.788 569.422 172.462 579.683 172.462C589.815 172.462 597.341 179.931 597.38 190.003ZM583.804 622.801C573.959 622.983 566.289 630.882 566.341 640.823C566.393 650.752 574.05 658.507 583.895 658.598C593.974 658.689 601.84 650.843 601.84 640.68C601.788 630.609 593.74 622.606 583.804 622.801ZM616.408 51.4489C622.841 51.54 627.385 56.2765 627.294 62.7958C627.242 69.276 622.463 73.8564 615.978 73.7653C609.636 73.6742 604.818 68.7034 604.909 62.3664C605 56.1334 610.027 51.3969 616.408 51.4489ZM625.875 754.644C619.481 754.697 614.989 759.368 615.041 765.9C615.08 772.237 619.82 777.013 626.11 777.013C632.595 777.013 637.374 772.042 637.231 765.432C637.139 759.043 632.451 754.553 625.875 754.644ZM700.027 328.141C700.17 338.069 692.031 346.397 682.239 346.345C672.589 346.345 664.581 338.304 664.49 328.57C664.399 318.629 672.017 310.691 681.809 310.548C691.992 310.353 699.897 317.965 700.027 328.141ZM683.941 482.824C673.719 482.824 666.335 490.202 666.335 500.365C666.283 510.814 673.719 518.153 684.228 518.049C694.398 518.01 701.638 510.632 701.599 500.326C701.599 490.15 694.163 482.824 683.941 482.824ZM767.273 197.801C773.576 197.944 778.16 202.823 778.069 209.252C778.017 215.537 772.912 220.689 766.948 220.507C760.658 220.364 755.879 215.445 755.879 209.16C755.879 202.589 760.801 197.67 767.273 197.801ZM772.343 603.98C765.806 604.123 761.456 608.807 761.6 615.418C761.691 621.859 766.47 626.296 773.098 626.153C779.492 626.023 784.128 621.143 783.893 614.663C783.659 608.235 778.867 603.785 772.343 603.98ZM821.611 400.305C826.624 399.03 831.833 401.489 834.385 406.356C834.706 406.941 835.047 407.506 835.382 408.064C835.592 408.412 835.8 408.757 836 409.102V412.836L835.901 413.065C835.504 413.979 835.104 414.899 834.672 415.764C832.25 420.969 827.523 423.285 821.65 422.153C816.779 421.203 813.094 416.714 812.951 411.561C812.808 406.408 816.493 401.632 821.611 400.305Z" stroke="white" stroke-opacity="0.2" stroke-width="2" mask="url(#path-1-inside-1_268_617)"/>
</svg>
