<svg width="658" height="656" viewBox="0 0 658 656" fill="none" xmlns="http://www.w3.org/2000/svg">
<mask id="path-1-inside-1_268_616" fill="white">
<path fill-rule="evenodd" clip-rule="evenodd" d="M337.813 8.62828C337.844 13.6845 334.195 17.3999 329.204 17.4408C323.956 17.4408 320.154 13.7254 320.195 8.58734C320.225 3.56184 323.915 0.030694 329.05 0C334.195 0 337.772 3.53114 337.813 8.62828ZM329.019 122.968C336.768 122.968 342.918 116.868 342.989 109.089C343.02 101.249 336.696 94.7698 328.978 94.7698C321.383 94.8107 315.09 101.136 315.019 108.792C314.978 116.755 321.086 122.968 329.019 122.968ZM350.117 210.79C350.189 222.765 340.77 232.213 328.85 232.141C317.114 232.1 307.767 222.622 307.879 210.831C308.023 198.928 317.227 189.849 329.188 189.921C340.883 189.992 350.046 199.143 350.117 210.79ZM329.523 281.65C303.079 281.578 282.55 301.813 282.478 327.964C282.437 353.593 302.895 374.34 328.252 374.422C354.48 374.494 375.41 353.962 375.522 328.108C375.635 302.816 354.736 281.691 329.523 281.65ZM329.354 423.89C317.434 423.777 308.015 432.856 307.861 444.647C307.676 456.775 316.768 466.028 328.903 466.11C340.495 466.223 349.986 456.96 350.14 445.425C350.284 433.746 340.936 424.002 329.354 423.89ZM328.906 533.062C321.116 533.103 315.049 539.203 315.049 546.971C315.008 554.934 321.311 561.331 329.019 561.26C336.696 561.178 342.876 554.934 342.948 547.197C343.02 539.274 336.839 533.021 328.906 533.062ZM320.26 647.074C320.342 642.048 324.134 638.476 329.279 638.589C334.343 638.66 337.848 642.386 337.735 647.586C337.663 652.724 334.086 656.071 328.757 655.999C323.652 655.927 320.188 652.273 320.26 647.074ZM247.072 390.525C235.193 390.484 225.917 399.717 225.917 411.538C225.876 423.513 234.926 432.633 246.888 432.664C258.767 432.746 268.083 423.513 268.114 411.722C268.114 399.86 258.879 390.597 247.072 390.525ZM267.893 246.049C267.893 258.772 257.869 268.894 245.17 268.853C232.502 268.812 222.519 258.7 222.601 245.906C222.632 233.327 232.584 223.583 245.324 223.624C258.054 223.655 267.852 233.409 267.893 246.049ZM211.685 308.097C199.919 308.138 190.602 317.544 190.674 329.335C190.756 341.197 199.991 350.348 211.911 350.317C223.749 350.276 233.025 340.901 232.881 329.11C232.769 317.247 223.493 308.056 211.685 308.097ZM215.743 149.379C215.784 157.485 209.829 163.442 201.629 163.401C193.737 163.36 187.731 157.373 187.813 149.451C187.844 141.529 193.768 135.654 201.742 135.654C209.829 135.654 215.712 141.416 215.743 149.379ZM198.5 489.877C190.68 489.724 184.345 496.018 184.304 503.94C184.304 511.934 190.495 518.106 198.428 518.034C206.177 517.963 212.203 511.862 212.244 504.053C212.285 496.233 206.248 490.02 198.5 489.877ZM164.266 49.391C164.194 44.2632 167.771 40.5375 172.834 40.4659C177.867 40.425 181.813 44.1506 181.885 49.0635C181.956 54.0378 178.164 57.9477 173.173 58.0193C168.068 58.1012 164.307 54.4881 164.266 49.391ZM165.387 593.581C160.211 593.51 156.521 597.041 156.449 602.066C156.336 607.266 160.098 611.176 165.202 611.176C170.153 611.176 173.883 607.419 173.914 602.435C173.955 597.297 170.419 593.622 165.387 593.581ZM107.019 258.104C107.132 250.111 113.353 244.123 121.358 244.266C129.066 244.379 135.062 250.623 134.99 258.442C134.918 266.098 128.625 272.424 121.02 272.424C113.312 272.464 106.907 265.914 107.019 258.104ZM119.683 379.775C111.637 379.775 105.784 385.538 105.784 393.542C105.754 401.648 111.452 407.451 119.457 407.482C127.728 407.564 133.581 401.791 133.54 393.572C133.54 385.579 127.728 379.775 119.683 379.775ZM45.5901 164.597C45.5184 159.53 49.1365 155.702 54.0869 155.59C59.1912 155.477 63.0655 159.346 63.0655 164.515C63.0655 169.469 59.3039 173.338 54.3432 173.44C49.6592 173.594 45.6311 169.54 45.5901 164.597ZM50.1028 475.073C44.9576 474.919 41.196 478.42 41.0115 483.476C40.827 488.573 44.4758 492.411 49.5083 492.514C54.7253 492.626 58.4869 489.136 58.5586 484.07C58.6713 478.87 55.248 475.185 50.1028 475.073ZM1.27093 319.625C3.27983 315.797 7.37961 313.863 11.3257 314.866C15.3537 315.91 18.2543 319.666 18.1415 323.719C18.0288 327.772 15.1282 331.304 11.2847 332.051C6.6724 332.941 2.94159 331.119 1.04544 327.025C0.705122 326.346 0.390956 325.622 0.0788224 324.904L0 324.722V321.785C0.157543 321.513 0.321139 321.242 0.486137 320.968L0.486174 320.968C0.750544 320.53 1.01851 320.085 1.27093 319.625ZM410.926 390.525C399.119 390.597 389.884 399.86 389.884 411.722C389.915 423.513 399.232 432.746 411.111 432.664C423.072 432.633 432.122 423.513 432.081 411.538C432.081 399.717 422.805 390.484 410.926 390.525ZM435.398 245.906C435.48 258.7 425.497 268.812 412.828 268.853C400.129 268.894 390.105 258.772 390.105 246.049C390.146 233.409 399.945 223.655 412.675 223.624C425.415 223.583 435.367 233.327 435.398 245.906ZM446.313 308.097C434.505 308.056 425.23 317.247 425.117 329.11C424.973 340.901 434.249 350.276 446.087 350.317C458.007 350.348 467.242 341.197 467.324 329.335C467.396 317.544 458.079 308.138 446.313 308.097ZM470.187 149.451C470.269 157.373 464.263 163.36 456.371 163.401C448.181 163.442 442.216 157.485 442.257 149.379C442.288 141.416 448.181 135.654 456.258 135.654C464.232 135.654 470.156 141.529 470.187 149.451ZM459.501 489.877C451.753 490.02 445.716 496.233 445.757 504.053C445.798 511.862 451.824 517.963 459.573 518.034C467.506 518.106 473.697 511.934 473.697 503.94C473.656 496.018 467.322 489.724 459.501 489.877ZM485.163 40.4682C490.226 40.5399 493.803 44.2655 493.732 49.3933C493.69 54.4905 489.929 58.0933 484.825 58.0216C479.833 57.95 476.041 54.0401 476.113 49.0556C476.184 44.1529 480.141 40.4273 485.163 40.4682ZM492.615 593.581C487.582 593.622 484.046 597.297 484.087 602.435C484.118 607.419 487.849 611.176 492.799 611.176C497.903 611.176 501.665 607.266 501.552 602.066C501.481 597.041 497.791 593.51 492.615 593.581ZM550.978 258.106C551.091 265.915 544.685 272.466 536.977 272.425C529.383 272.425 523.079 266.1 523.007 258.444C522.936 250.624 528.932 244.381 536.639 244.268C544.654 244.114 550.876 250.102 550.978 258.106ZM538.317 379.775C530.271 379.775 524.46 385.579 524.46 393.572C524.419 401.791 530.271 407.564 538.543 407.482C546.548 407.451 552.246 401.648 552.216 393.542C552.216 385.538 546.363 379.775 538.317 379.775ZM603.907 155.584C608.867 155.697 612.475 159.535 612.403 164.591C612.362 169.535 608.345 173.588 603.65 173.445C598.7 173.332 594.938 169.463 594.938 164.519C594.938 159.351 598.813 155.482 603.907 155.584ZM607.897 475.073C602.751 475.185 599.328 478.87 599.441 484.07C599.513 489.136 603.274 492.626 608.491 492.514C613.524 492.411 617.172 488.573 616.988 483.476C616.803 478.42 613.032 474.919 607.897 475.073ZM646.674 314.868C650.62 313.865 654.72 315.8 656.729 319.628C656.982 320.088 657.25 320.532 657.514 320.971C657.679 321.245 657.842 321.516 658 321.787V324.725L657.922 324.905C657.609 325.624 657.295 326.348 656.955 327.028C655.048 331.122 651.328 332.944 646.705 332.053C642.872 331.306 639.971 327.775 639.859 323.722C639.746 319.669 642.646 315.912 646.674 314.868Z"/>
</mask>
<path fill-rule="evenodd" clip-rule="evenodd" d="M337.813 8.62828C337.844 13.6845 334.195 17.3999 329.204 17.4408C323.956 17.4408 320.154 13.7254 320.195 8.58734C320.225 3.56184 323.915 0.030694 329.05 0C334.195 0 337.772 3.53114 337.813 8.62828ZM329.019 122.968C336.768 122.968 342.918 116.868 342.989 109.089C343.02 101.249 336.696 94.7698 328.978 94.7698C321.383 94.8107 315.09 101.136 315.019 108.792C314.978 116.755 321.086 122.968 329.019 122.968ZM350.117 210.79C350.189 222.765 340.77 232.213 328.85 232.141C317.114 232.1 307.767 222.622 307.879 210.831C308.023 198.928 317.227 189.849 329.188 189.921C340.883 189.992 350.046 199.143 350.117 210.79ZM329.523 281.65C303.079 281.578 282.55 301.813 282.478 327.964C282.437 353.593 302.895 374.34 328.252 374.422C354.48 374.494 375.41 353.962 375.522 328.108C375.635 302.816 354.736 281.691 329.523 281.65ZM329.354 423.89C317.434 423.777 308.015 432.856 307.861 444.647C307.676 456.775 316.768 466.028 328.903 466.11C340.495 466.223 349.986 456.96 350.14 445.425C350.284 433.746 340.936 424.002 329.354 423.89ZM328.906 533.062C321.116 533.103 315.049 539.203 315.049 546.971C315.008 554.934 321.311 561.331 329.019 561.26C336.696 561.178 342.876 554.934 342.948 547.197C343.02 539.274 336.839 533.021 328.906 533.062ZM320.26 647.074C320.342 642.048 324.134 638.476 329.279 638.589C334.343 638.66 337.848 642.386 337.735 647.586C337.663 652.724 334.086 656.071 328.757 655.999C323.652 655.927 320.188 652.273 320.26 647.074ZM247.072 390.525C235.193 390.484 225.917 399.717 225.917 411.538C225.876 423.513 234.926 432.633 246.888 432.664C258.767 432.746 268.083 423.513 268.114 411.722C268.114 399.86 258.879 390.597 247.072 390.525ZM267.893 246.049C267.893 258.772 257.869 268.894 245.17 268.853C232.502 268.812 222.519 258.7 222.601 245.906C222.632 233.327 232.584 223.583 245.324 223.624C258.054 223.655 267.852 233.409 267.893 246.049ZM211.685 308.097C199.919 308.138 190.602 317.544 190.674 329.335C190.756 341.197 199.991 350.348 211.911 350.317C223.749 350.276 233.025 340.901 232.881 329.11C232.769 317.247 223.493 308.056 211.685 308.097ZM215.743 149.379C215.784 157.485 209.829 163.442 201.629 163.401C193.737 163.36 187.731 157.373 187.813 149.451C187.844 141.529 193.768 135.654 201.742 135.654C209.829 135.654 215.712 141.416 215.743 149.379ZM198.5 489.877C190.68 489.724 184.345 496.018 184.304 503.94C184.304 511.934 190.495 518.106 198.428 518.034C206.177 517.963 212.203 511.862 212.244 504.053C212.285 496.233 206.248 490.02 198.5 489.877ZM164.266 49.391C164.194 44.2632 167.771 40.5375 172.834 40.4659C177.867 40.425 181.813 44.1506 181.885 49.0635C181.956 54.0378 178.164 57.9477 173.173 58.0193C168.068 58.1012 164.307 54.4881 164.266 49.391ZM165.387 593.581C160.211 593.51 156.521 597.041 156.449 602.066C156.336 607.266 160.098 611.176 165.202 611.176C170.153 611.176 173.883 607.419 173.914 602.435C173.955 597.297 170.419 593.622 165.387 593.581ZM107.019 258.104C107.132 250.111 113.353 244.123 121.358 244.266C129.066 244.379 135.062 250.623 134.99 258.442C134.918 266.098 128.625 272.424 121.02 272.424C113.312 272.464 106.907 265.914 107.019 258.104ZM119.683 379.775C111.637 379.775 105.784 385.538 105.784 393.542C105.754 401.648 111.452 407.451 119.457 407.482C127.728 407.564 133.581 401.791 133.54 393.572C133.54 385.579 127.728 379.775 119.683 379.775ZM45.5901 164.597C45.5184 159.53 49.1365 155.702 54.0869 155.59C59.1912 155.477 63.0655 159.346 63.0655 164.515C63.0655 169.469 59.3039 173.338 54.3432 173.44C49.6592 173.594 45.6311 169.54 45.5901 164.597ZM50.1028 475.073C44.9576 474.919 41.196 478.42 41.0115 483.476C40.827 488.573 44.4758 492.411 49.5083 492.514C54.7253 492.626 58.4869 489.136 58.5586 484.07C58.6713 478.87 55.248 475.185 50.1028 475.073ZM1.27093 319.625C3.27983 315.797 7.37961 313.863 11.3257 314.866C15.3537 315.91 18.2543 319.666 18.1415 323.719C18.0288 327.772 15.1282 331.304 11.2847 332.051C6.6724 332.941 2.94159 331.119 1.04544 327.025C0.705122 326.346 0.390956 325.622 0.0788224 324.904L0 324.722V321.785C0.157543 321.513 0.321139 321.242 0.486137 320.968L0.486174 320.968C0.750544 320.53 1.01851 320.085 1.27093 319.625ZM410.926 390.525C399.119 390.597 389.884 399.86 389.884 411.722C389.915 423.513 399.232 432.746 411.111 432.664C423.072 432.633 432.122 423.513 432.081 411.538C432.081 399.717 422.805 390.484 410.926 390.525ZM435.398 245.906C435.48 258.7 425.497 268.812 412.828 268.853C400.129 268.894 390.105 258.772 390.105 246.049C390.146 233.409 399.945 223.655 412.675 223.624C425.415 223.583 435.367 233.327 435.398 245.906ZM446.313 308.097C434.505 308.056 425.23 317.247 425.117 329.11C424.973 340.901 434.249 350.276 446.087 350.317C458.007 350.348 467.242 341.197 467.324 329.335C467.396 317.544 458.079 308.138 446.313 308.097ZM470.187 149.451C470.269 157.373 464.263 163.36 456.371 163.401C448.181 163.442 442.216 157.485 442.257 149.379C442.288 141.416 448.181 135.654 456.258 135.654C464.232 135.654 470.156 141.529 470.187 149.451ZM459.501 489.877C451.753 490.02 445.716 496.233 445.757 504.053C445.798 511.862 451.824 517.963 459.573 518.034C467.506 518.106 473.697 511.934 473.697 503.94C473.656 496.018 467.322 489.724 459.501 489.877ZM485.163 40.4682C490.226 40.5399 493.803 44.2655 493.732 49.3933C493.69 54.4905 489.929 58.0933 484.825 58.0216C479.833 57.95 476.041 54.0401 476.113 49.0556C476.184 44.1529 480.141 40.4273 485.163 40.4682ZM492.615 593.581C487.582 593.622 484.046 597.297 484.087 602.435C484.118 607.419 487.849 611.176 492.799 611.176C497.903 611.176 501.665 607.266 501.552 602.066C501.481 597.041 497.791 593.51 492.615 593.581ZM550.978 258.106C551.091 265.915 544.685 272.466 536.977 272.425C529.383 272.425 523.079 266.1 523.007 258.444C522.936 250.624 528.932 244.381 536.639 244.268C544.654 244.114 550.876 250.102 550.978 258.106ZM538.317 379.775C530.271 379.775 524.46 385.579 524.46 393.572C524.419 401.791 530.271 407.564 538.543 407.482C546.548 407.451 552.246 401.648 552.216 393.542C552.216 385.538 546.363 379.775 538.317 379.775ZM603.907 155.584C608.867 155.697 612.475 159.535 612.403 164.591C612.362 169.535 608.345 173.588 603.65 173.445C598.7 173.332 594.938 169.463 594.938 164.519C594.938 159.351 598.813 155.482 603.907 155.584ZM607.897 475.073C602.751 475.185 599.328 478.87 599.441 484.07C599.513 489.136 603.274 492.626 608.491 492.514C613.524 492.411 617.172 488.573 616.988 483.476C616.803 478.42 613.032 474.919 607.897 475.073ZM646.674 314.868C650.62 313.865 654.72 315.8 656.729 319.628C656.982 320.088 657.25 320.532 657.514 320.971C657.679 321.245 657.842 321.516 658 321.787V324.725L657.922 324.905C657.609 325.624 657.295 326.348 656.955 327.028C655.048 331.122 651.328 332.944 646.705 332.053C642.872 331.306 639.971 327.775 639.859 323.722C639.746 319.669 642.646 315.912 646.674 314.868Z" stroke="#086663" stroke-opacity="0.2" stroke-width="2" mask="url(#path-1-inside-1_268_616)"/>
</svg>
