<svg width="514" height="201" viewBox="0 0 514 201" fill="none" xmlns="http://www.w3.org/2000/svg">
<path d="M343.502 173.971L348.402 178.882L353.301 173.971L373.634 153.592L498.787 28.1546L499.641 27.2987V28.5078V148.68C499.641 152.517 502.745 155.626 506.571 155.626C510.397 155.626 513.5 152.517 513.5 148.68V10.5307V3.58439H506.571H368.735C364.909 3.58439 361.805 6.6933 361.805 10.5307C361.805 14.3681 364.909 17.4771 368.735 17.4771H488.634H489.839L488.988 18.3302L363.835 143.768L348.756 158.882L348.402 159.236L348.048 158.882L195.132 5.61851L190.233 0.707899L185.333 5.61851L27.5807 163.73L27.3415 163.97L27.03 163.836C24.7345 162.853 22.2069 162.309 19.5512 162.309C9.03058 162.309 0.5 170.857 0.5 181.404C0.5 191.952 9.03058 200.5 19.5512 200.5C30.0718 200.5 38.6023 191.952 38.6023 181.404C38.6023 178.846 38.1004 176.406 37.1905 174.177L37.065 173.869L37.2994 173.635L189.879 20.7083L190.233 20.3535L190.587 20.7083L343.502 173.971Z" stroke="#05403E" stroke-opacity="0.1"/>
</svg>
