<svg width="753" height="644" viewBox="0 0 753 644" fill="none" xmlns="http://www.w3.org/2000/svg">
<path d="M752.293 322L717.048 286.778L445.19 15.09C425.724 -4.36333 394.165 -4.36333 374.699 15.09L374.346 14.7363L374.699 15.09C355.234 34.5424 355.234 66.0823 374.699 85.5347L560.615 271.334L561.469 272.187H560.261H172.295H172.021L171.874 271.957C155.347 246.16 126.419 229.062 93.4962 229.062C42.1354 229.062 0.5 270.672 0.5 322C0.5 373.328 42.1354 414.938 93.4962 414.938C126.419 414.938 155.347 397.84 171.874 372.043L172.021 371.813H172.295H560.261H561.469L560.615 372.666L374.699 558.465C355.234 577.918 355.234 609.458 374.699 628.91C394.165 648.363 425.724 648.363 445.19 628.91L717.048 357.222L752.293 322Z" stroke="#05403E" stroke-opacity="0.1"/>
</svg>
