<svg width="691" height="270" viewBox="0 0 691 270" fill="none" xmlns="http://www.w3.org/2000/svg">
<path d="M229.332 36.186L222.623 29.4675L215.915 36.186L188.58 63.5614L20.3295 232.059L19.4757 232.914V231.706V70.2809C19.4757 65.0322 15.2271 60.7784 9.98783 60.7784C4.74854 60.7784 0.5 65.0322 0.5 70.2809V255.854V265.357H9.98783H195.288C200.528 265.357 204.776 261.103 204.776 255.854C204.776 250.605 200.528 246.352 195.288 246.352H34.1006H32.8948L33.7468 245.498L201.997 77.0005L222.27 56.6981L222.623 56.3437L222.977 56.6981L428.55 262.574L435.259 269.292L441.968 262.574L654.044 50.1857L654.283 49.9461L654.594 50.0793C657.701 51.4088 661.122 52.1449 664.716 52.1449C678.956 52.1449 690.5 40.5845 690.5 26.3224C690.5 12.0604 678.956 0.5 664.716 0.5C650.477 0.5 638.932 12.0604 638.932 26.3224C638.932 29.7823 639.612 33.0819 640.843 36.096L640.969 36.4034L640.734 36.6384L435.613 242.062L435.259 242.416L434.905 242.062L229.332 36.186Z" stroke="white" stroke-opacity="0.2"/>
</svg>
