<svg width="46" height="46" viewBox="0 0 46 46" fill="none" xmlns="http://www.w3.org/2000/svg">
<path d="M23.0365 19.7171C21.1879 19.712 19.7527 21.1286 19.7477 22.9593C19.7448 24.7535 21.175 26.2059 22.9477 26.2117C24.7813 26.2167 26.2444 24.7793 26.2523 22.9694C26.2602 21.1988 24.7992 19.7199 23.0365 19.7171Z" fill="#BBD768"/>
<path d="M23.0247 29.6748C22.1914 29.6669 21.5329 30.3025 21.5222 31.1279C21.5093 31.977 22.1448 32.6248 22.9932 32.6305C23.8036 32.6384 24.4671 31.9899 24.4779 31.1824C24.4879 30.3648 23.8344 29.6827 23.0247 29.6748Z" fill="#BBD768"/>
<path d="M22.9895 16.2511C23.8228 16.2562 24.4813 15.5948 24.4763 14.7565C24.4713 13.9411 23.8307 13.3005 23.0131 13.2955C22.1769 13.2905 21.5335 13.926 21.5235 14.7593C21.5156 15.5848 22.1691 16.2483 22.9895 16.2511Z" fill="#BBD768"/>
<path d="M23.0013 8.60832C23.543 8.60832 23.973 8.18127 23.978 7.63671C23.9801 7.08785 23.538 6.63429 22.9985 6.63429C22.4675 6.63716 22.0276 7.07997 22.0226 7.61593C22.0197 8.17339 22.4468 8.60832 23.0013 8.60832Z" fill="#BBD768"/>
<path d="M23.0142 1.22096C23.3632 1.2181 23.6183 0.957997 23.6161 0.604033C23.6133 0.247203 23.3632 7.15256e-07 23.0035 7.15256e-07C22.6445 0.0021503 22.3866 0.249352 22.3844 0.601167C22.3815 0.960863 22.6474 1.22096 23.0142 1.22096Z" fill="#BBD768"/>
<path d="M22.9934 37.3174C22.4489 37.3202 22.0247 37.7473 22.0247 38.2911C22.0218 38.8486 22.4625 39.2964 23.0013 39.2914C23.538 39.2857 23.97 38.8486 23.9751 38.3069C23.9801 37.7523 23.548 37.3145 22.9934 37.3174Z" fill="#BBD768"/>
<path d="M23.0195 44.705C22.6598 44.6971 22.3947 44.9472 22.389 45.299C22.3839 45.663 22.6261 45.9188 22.983 45.9238C23.3556 45.9288 23.6056 45.6945 23.6106 45.3348C23.6185 44.9708 23.3735 44.71 23.0195 44.705Z" fill="#BBD768"/>
<path d="M17.2725 27.339C16.442 27.3362 15.7936 27.9825 15.7936 28.8101C15.7907 29.6484 16.4234 30.2868 17.2596 30.289C18.0901 30.2947 18.7414 29.6484 18.7435 28.8229C18.7435 27.9925 18.0979 27.344 17.2725 27.339Z" fill="#BBD768"/>
<path d="M17.1395 18.8212C18.0273 18.8241 18.7281 18.1154 18.7281 17.2248C18.7252 16.3399 18.0402 15.657 17.1503 15.6549C16.2597 15.652 15.5639 16.3341 15.5618 17.2148C15.556 18.1104 16.2539 18.8183 17.1395 18.8212Z" fill="#BBD768"/>
<path d="M14.7987 21.5686C13.9761 21.5715 13.3248 22.23 13.3298 23.0554C13.3355 23.8859 13.9811 24.5264 14.8144 24.5243C15.642 24.5214 16.2905 23.8651 16.2804 23.0396C16.2726 22.2092 15.6241 21.5657 14.7987 21.5686Z" fill="#BBD768"/>
<path d="M14.0956 11.4389C14.6689 11.4418 15.0852 11.0247 15.0823 10.4572C15.0801 9.89979 14.6689 9.49638 14.1035 9.49638C13.5461 9.49638 13.1319 9.90767 13.1298 10.4623C13.124 11.0169 13.5439 11.436 14.0956 11.4389Z" fill="#BBD768"/>
<path d="M13.8769 34.2944C13.3302 34.2836 12.8874 34.7243 12.8845 35.2789C12.8845 35.8385 13.3173 36.2706 13.8719 36.2655C14.4136 36.2605 14.8349 35.8335 14.8377 35.2868C14.8406 34.7393 14.4186 34.3044 13.8769 34.2944Z" fill="#BBD768"/>
<path d="M12.0826 2.83274C11.7287 2.83775 11.4786 3.09857 11.4836 3.45755C11.4865 3.81438 11.7495 4.06731 12.1063 4.06158C12.4552 4.05656 12.7204 3.78285 12.7153 3.43462C12.7103 3.09069 12.4345 2.82987 12.0826 2.83274Z" fill="#BBD768"/>
<path d="M11.562 41.5541C11.2001 41.549 10.9422 41.7962 10.9372 42.1481C10.9293 42.5121 11.1923 42.7858 11.5491 42.7858C11.8952 42.7858 12.156 42.5228 12.1581 42.1739C12.161 41.8142 11.9138 41.5569 11.562 41.5541Z" fill="#BBD768"/>
<path d="M8.48401 17.1002C7.92441 17.0901 7.48948 17.5093 7.48159 18.0689C7.47371 18.6156 7.92154 19.0742 8.46037 19.0713C8.99203 19.0713 9.43198 18.6285 9.437 18.0926C9.44201 17.5451 9.02284 17.1081 8.48401 17.1002Z" fill="#BBD768"/>
<path d="M8.36687 26.5865C7.80439 26.5865 7.39526 26.9899 7.39526 27.5502C7.39311 28.1177 7.7915 28.524 8.3511 28.5262C8.92934 28.5319 9.33848 28.1278 9.33561 27.5524C9.33561 26.9928 8.92934 26.5865 8.36687 26.5865Z" fill="#BBD768"/>
<path d="M3.78115 10.8921C3.43506 10.9 3.18213 11.168 3.18715 11.5227C3.19001 11.8688 3.47161 12.1525 3.79906 12.1418C4.14586 12.1346 4.40882 11.8638 4.40882 11.517C4.40882 11.1551 4.13798 10.8843 3.78115 10.8921Z" fill="#BBD768"/>
<path d="M3.50262 33.258C3.14292 33.2473 2.87996 33.4923 2.86706 33.8463C2.85416 34.2031 3.10925 34.4718 3.46106 34.479C3.82577 34.4869 4.08874 34.2425 4.09375 33.8879C4.10164 33.5239 3.86232 33.2659 3.50262 33.258Z" fill="#BBD768"/>
<path d="M0.791762 22.0424C0.515899 21.9722 0.229289 22.1076 0.0888494 22.3756C0.0601883 22.4279 0.0286611 22.4773 0 22.5268V22.7324C0.0236454 22.7869 0.0472908 22.842 0.0730857 22.8936C0.205643 23.1802 0.466459 23.3078 0.788896 23.2455C1.05759 23.1931 1.26037 22.9459 1.26825 22.6622C1.27613 22.3785 1.07336 22.1155 0.791762 22.0424Z" fill="#BBD768"/>
<path d="M28.7273 27.339C27.9019 27.344 27.2563 27.9925 27.2563 28.8229C27.2585 29.6484 27.9098 30.2947 28.7402 30.289C29.5764 30.2868 30.2091 29.6484 30.2062 28.8101C30.2062 27.9825 29.5578 27.3362 28.7273 27.339Z" fill="#BBD768"/>
<path d="M28.8603 18.8212C29.746 18.8183 30.4439 18.1104 30.4381 17.2148C30.436 16.3341 29.7402 15.652 28.8496 15.6549C27.9597 15.657 27.2747 16.3399 27.2718 17.2248C27.2718 18.1154 27.9726 18.8241 28.8603 18.8212Z" fill="#BBD768"/>
<path d="M31.2012 21.5686C30.3757 21.5657 29.7273 22.2092 29.7194 23.0396C29.7094 23.8651 30.3578 24.5214 31.1854 24.5243C32.0187 24.5264 32.6643 23.8859 32.6701 23.0554C32.6751 22.23 32.0237 21.5715 31.2012 21.5686Z" fill="#BBD768"/>
<path d="M31.9043 11.4389C32.456 11.436 32.8759 11.0169 32.8702 10.4623C32.868 9.90767 32.4539 9.49638 31.8964 9.49638C31.3318 9.49638 30.9198 9.89979 30.9176 10.4572C30.9148 11.0247 31.3318 11.4418 31.9043 11.4389Z" fill="#BBD768"/>
<path d="M32.1232 34.2944C31.5815 34.3044 31.1594 34.7393 31.1623 35.2868C31.1652 35.8335 31.5865 36.2605 32.1282 36.2655C32.6828 36.2706 33.1156 35.8385 33.1156 35.2789C33.1127 34.7243 32.6699 34.2836 32.1232 34.2944Z" fill="#BBD768"/>
<path d="M34.5162 3.45785C34.5212 3.09887 34.2711 2.83805 33.9171 2.83303C33.566 2.83017 33.2895 3.09098 33.2844 3.4342C33.2794 3.78315 33.5445 4.05686 33.8935 4.06188C34.2503 4.06689 34.5133 3.81468 34.5162 3.45785Z" fill="#BBD768"/>
<path d="M34.4381 41.5541C34.0863 41.5569 33.8391 41.8142 33.8419 42.1739C33.8441 42.5228 34.1049 42.7858 34.451 42.7858C34.8078 42.7858 35.0708 42.5121 35.0629 42.1481C35.0579 41.7962 34.7999 41.549 34.4381 41.5541Z" fill="#BBD768"/>
<path d="M37.5394 19.0713C38.0783 19.0742 38.5261 18.6156 38.5182 18.0689C38.511 17.5086 38.0761 17.0894 37.5158 17.1002C36.977 17.1081 36.5578 17.5451 36.5628 18.0926C36.5678 18.6285 37.0085 19.0713 37.5394 19.0713Z" fill="#BBD768"/>
<path d="M37.6331 26.5865C37.0706 26.5865 36.6644 26.9928 36.6644 27.5524C36.6615 28.1278 37.0706 28.5319 37.6489 28.5262C38.2085 28.524 38.6069 28.1177 38.6047 27.5502C38.6047 26.9899 38.1956 26.5865 37.6331 26.5865Z" fill="#BBD768"/>
<path d="M42.8124 11.5223C42.8174 11.1683 42.5652 10.8996 42.2184 10.8917C41.8622 10.8846 41.5914 11.1554 41.5914 11.5173C41.5914 11.8633 41.8544 12.1342 42.2004 12.1421C42.5286 12.1521 42.8095 11.8684 42.8124 11.5223Z" fill="#BBD768"/>
<path d="M42.4973 33.258C42.1376 33.2659 41.8983 33.5239 41.9062 33.8879C41.9112 34.2425 42.1741 34.4869 42.5389 34.479C42.8907 34.4718 43.1458 34.2031 43.1329 33.8463C43.12 33.4923 42.8563 33.2473 42.4973 33.258Z" fill="#BBD768"/>
<path d="M45.9111 22.3759C45.7707 22.1079 45.4841 21.9725 45.2082 22.0427C44.9266 22.1158 44.7238 22.3787 44.7317 22.6625C44.7396 22.9462 44.9424 23.1934 45.2104 23.2457C45.5335 23.3081 45.7936 23.1805 45.9269 22.8939C45.9527 22.8423 45.9763 22.7872 46 22.7327V22.5271C45.9713 22.4776 45.9398 22.4282 45.9111 22.3759Z" fill="#BBD768"/>
</svg>
